# xmcd
#
# Track frame offsets:
#	150
#	11458
#	43829
#	80651
#	111493
#	140491
#	163468
#	186809
#	208865
#	233217
#	251912
#	270779
#	300450
#	326415
#
# Disc length: 4636 seconds
#
# Revision: 0
# Processed by: cddbd v1.5.2PL0 Copyright (c) Steve Scherf et al.
# Submitted via: dBpowerAMP V4.0
#
DISCID=c7121a0e
DTITLE=Anna Jansson - Må döden sova
DYEAR=2002
DGENRE=CD-BOK
TTITLE0=06.01
TTITLE1=06.02
TTITLE2=06.03
TTITLE3=06.04
TTITLE4=06.05
TTITLE5=06.06
TTITLE6=06.07
TTITLE7=06.08
TTITLE8=06.09
TTITLE9=06.10
TTITLE10=06.11
TTITLE11=06.12
TTITLE12=06.13
TTITLE13=06.14
EXTD=
EXTT0=
EXTT1=
EXTT2=
EXTT3=
EXTT4=
EXTT5=
EXTT6=
EXTT7=
EXTT8=
EXTT9=
EXTT10=
EXTT11=
EXTT12=
EXTT13=
PLAYORDER=
